<?xml version="1.0" encoding="UTF-8"?>
<svg version="1.1" id="Layer_1" xmlns="http://www.w3.org/2000/svg" x="0" y="0" viewBox="0 0 32 32" xml:space="preserve"><style>@media (prefers-color-scheme:dark){.a{fill:#fff}}</style><path class="a" d="M14.56 14.56h2.87v2.87h-2.87z"/><path class="a" d="M16 0C7.16 0 0 7.16 0 16s7.16 16 16 16 16-7.16 16-16S24.84 0 16 0zm13.21 11.6a.56.56 0 110 1.12.56.56 0 110-1.12zm-2.74-.72H21.1V5.52c2.33 1.14 4.23 3.03 5.37 5.36zM4.35 16c0-.88.1-1.74.28-2.56h6.25v5.12H4.63c-.18-.83-.28-1.68-.28-2.56zm7.25 3.83a.56.56 0 111.12 0 .56.56 0 11-1.12 0zm.56-7.11a.56.56 0 110-1.12.56.56 0 110 1.12zm1.27.72h5.11v5.12h-5.11v-5.12zm5.83 6.39a.56.56 0 111.12 0 .56.56 0 11-1.12 0zm.56-7.11a.56.56 0 110-1.12.56.56 0 110 1.12zm0-10.59a.56.56 0 110 1.12.56.56 0 110-1.12zm-1.28 2.5v6.25h-5.11V4.63a11.838 11.838 0 015.11 0zm-6.38-2.5a.56.56 0 110 1.12.56.56 0 110-1.12zm-1.28 3.4v5.35H5.53c1.14-2.32 3.03-4.21 5.35-5.35zM2.73 20.39a.56.56 0 110-1.12.56.56 0 110 1.12zm0-7.67a.56.56 0 110-1.12.56.56 0 110 1.12zm2.8 8.39h5.35v5.36a11.629 11.629 0 01-5.35-5.36zm6.63 8.75a.56.56 0 110-1.12.56.56 0 110 1.12zm1.27-2.49v-6.26h5.11v6.26c-.82.18-1.67.28-2.54.28-.88 0-1.74-.1-2.57-.28zm6.39 2.49a.56.56 0 110-1.12.56.56 0 110 1.12zm1.28-3.38v-5.37h5.38a11.807 11.807 0 01-5.38 5.37zm6.27-7.93H21.1v-5.12h6.27a11.883 11.883 0 010 5.12zm1.84 1.84a.56.56 0 110-1.12.56.56 0 110 1.12z"/></svg>